<?xml version="1.0" encoding="UTF-8"?>
<!-- Generator: Adobe Illustrator 17.0.0, SVG Export Plug-In . SVG Version: 6.00 Build 0)  -->
<!DOCTYPE svg PUBLIC "-//W3C//DTD SVG 1.1//EN" "http://www.w3.org/Graphics/SVG/1.1/DTD/svg11.dtd">
<svg version="1.1" id="Camada_1" xmlns="http://www.w3.org/2000/svg" xmlns:xlink="http://www.w3.org/1999/xlink" x="0px" y="0px" width="800px" height="460px" viewBox="0 0 800 460" enable-background="new 0 0 800 460" xml:space="preserve">
<g>
	<path fill="none" stroke="#000000" stroke-width="7" stroke-miterlimit="10" d="M219.054,439.339   c3.029-9.774,2.501-21.257,2.978-31.39c0.083-1.753,0.149-3.507,0.239-5.259c0.622-12.105,1.024-24.351,0.683-36.469   c-0.123-4.374-0.922-9.694,2.067-13.343c4.998-6.102,15.249-10.077,22.339-5.837c6.969,4.168,8.054,12.511,7.695,19.921   c-0.441,9.09-2.11,18.102-2.758,27.182c-0.682,9.555,1.578,18.952,3.224,28.299c0.967,5.489,2.199,15.937,9.084,17.019   c-13.281,1.057-26.867,0.038-40.189,0.038C222.688,439.5,220.7,439.736,219.054,439.339z"/>
	<path fill="none" stroke="#000000" stroke-width="8" stroke-miterlimit="10" d="M145.391,343.575   c-0.509-1.172-1.576-1.652-2.703-2.335c-2.151-1.304-4.363-2.528-6.487-3.873c-3.58-2.267-7.16-4.535-10.74-6.802   c-4.238-2.684-4.012-7.804-5.191-12.198c-0.919-3.425-1.261-7.868-2.922-11.001c-0.959-1.807-2.802-3.421-4.143-4.962   c-1.345-1.546-2.618-3.152-3.937-4.721c-1.405-1.672-3.865-3.676-4.769-5.682c-2.204-4.897-2.733-9.405-8.33-11.342   c-6.283-2.174-13.273-4.118-17.04-10.077c-4.627-7.319,0.51-16.474-0.698-24.474c-0.567-3.751-1.96-7.355-2.832-11.04   c-0.807-3.409-1.3-7.182-3.287-10.144c-2.458-3.663-1.437-7.783-0.1-11.672c1.983-5.768,4.655-9.646,4.242-15.876   c-0.311-4.693-3.961-10.799-1.239-15.349c1.84-3.076,3.158-0.491,4.873-1.972c3.474-3,3.948-7.466,8.123-9.871   c4.1-2.362,9.099-0.746,12.448-4.875c6.624-8.172-2.746-18.823,2.882-26.294c2.92-3.877,8.191-4.421,10.943-8.566   c2.917-4.393,1.984-10.074,3.882-14.836c1.813-4.547,5.56-8.08,7.519-12.573c4.374-10.032,12.698-1.743,16.691-9.76   c1.54-3.092,1.816-8.536,4.206-11.046c3.561-3.74,7.497-1.343,11.644-2.939C164.907,76.8,165.421,63.607,172.5,64   c2.196,0.122,4.355-1.064,6.539-0.482c1.091,0.291,2.026,1.096,0.968,2.071c-2.209,2.037-6.322,0.644-8.564-0.584   c-6.668-3.652-0.956-14.032,10.89-15.34c8.2-0.904,3.699,1.628,11.804-0.376c5.264-1.302,5.852-6.731,8.868-10.295   c1.578-1.865,4.04-3.481,6.328-4.328c2.521-0.934,5.677-1.72,7.382-3.976c1.838-2.433-0.526-5.098,0.285-7.691   c0.54-1.729,1.345-3.562,3.02-4.442c2.606-1.37,5.658-0.318,8.26,0.506c2.778,0.88,5.521,1.865,8.361,2.535   c1.85,0.437,3.727,0.759,5.624,0.902c3.327,0.251,6.83,0.136,9.992,1.34c2.322,0.884,4.319,2.406,6.409,3.719   c1.595,1.002,3.199,1.983,4.824,2.936c4.717,2.766,9.471,9.648,15.44,9.509c6.263-0.146,8.841-8.99,15.225-3.486   c3.921,3.376,10.196-1.122,13.244,2.907c1.29,1.705,1.281,5.013,2.042,7.01c1.999,5.244,5.974,9.324,9.62,13.457   c4.317,4.894,8.287,6.168,14.427,6.177c13.74,0.019,6.718,5.301,13.095,14.063C350.345,85.299,357.973,83.129,359,91   c0.506,3.882,2.394,7.141,5.41,9.602c6.752,5.509,11.526,1.575,18.518,4.311c3.509,1.373,9.667,8.716,12.175,11.799   c6.512,8.003-2.779,17.736,0.01,26.94c3.333,11.003,13.733,16.531,21.08,24.465c9.689,10.463,8.753,22.019,2.267,34.151   c-2.841,5.314,2.449,10.256,1.874,16.066c-0.29,2.93-4.359,15.121-5.915,17.667c-3.793,6.207-1.812,2.817-3.418,9.778   c-4.5,19.5,13,11.222,3,24.722c-10,13.5-5.5,14.5-15.002,30.003c-4.928,8.04-9.729,14.71-12.758,23.673   c-3.654,10.813-9.87,9.087-18.373,13.949c-3.533,2.02-6.777,4.74-10.853,5.572c-4.456,0.91-8.94-0.775-13.435,0.199   c-5.961,1.291-10.191,6.039-16.216,7.547c-8.455,2.117-24.983-2.816-30.365,6.056c-2.702,4.454-9.56,5.015-14.177,5.304   c-8.484,0.531-16.958-0.618-25.3-2.054c-3.671-0.632-3.211-4.667-4.529-7.438c-1.523-3.203-3.836-4.924-6.654-6.815   c-0.653-0.438-9.089-0.958-9.495-0.792c-3.491,1.425-6.314,2.531-9.227,4.867c-1.517,1.217-3.295,2.82-4,4.75   c-0.685,1.876-0.62,2.933-1.47,4.778c0.431-0.937-4.462-0.968-4.881-1.043c-1.684-0.303-3.38-0.517-5.069-0.786   c-5.128-0.816-10.347-0.47-15.491-0.01c-2.444,0.218-4.887,0.453-7.335,0.66c-4.608,0.391-8.942,2.567-13.642,2.194   c-3.233-0.257-6.016-1.889-8.346-4.063c-2.227-2.078-3.842-4.965-7.093-5.524c-4.59-0.788-10.488,1.715-13.787-2.805   c-1.003-1.374-0.548-3.134-0.945-4.657C145.514,343.89,145.457,343.727,145.391,343.575z"/>
	<path fill="none" stroke="#000000" stroke-width="3" stroke-miterlimit="10" d="M130,160c2.196,4.632-1.929,9.501-4.083,13.304   c-3.041,5.368-3.129,10.418-3.199,16.524c-0.056,4.892-1.679,10.037-1.343,14.84c0.381,5.45,4.524,5.758,6.627,9.884   c2.453,4.811,0.24,9.861,1.172,14.881c1.111,5.982,5.249,10.505,9.182,14.87c5.217,5.792,8.596,9.914,15.644,13.696"/>
	<path fill="none" stroke="#000000" stroke-width="3" stroke-miterlimit="10" d="M146,193c4.559,4.346,2.562,8.938,3.579,14.319   c0.975,5.161,3.867,8.765,7.153,12.74c4.975,6.019,7.623,12.652,15.091,16.034c9.226,4.177,24.653,0.391,28.539,11.841   C206.433,265.825,218.279,266.892,234,274"/>
	<path fill="none" stroke="#000000" stroke-width="3" stroke-miterlimit="10" d="M154,274c3.868,0.553,4.141,13.112,4.749,15.878   c0.711,3.235,1.143,6.68,4.325,8.383c3.815,2.042,8.648,0.023,12.469,1.456c7.04,2.64,8.649,12.054,15.924,14.075   c6.312,1.754,12.874-0.592,19.194,1.577c5.871,2.015,10.59,6.324,16.339,8.631"/>
	<path fill="none" stroke="#000000" stroke-width="3" stroke-miterlimit="10" d="M120,255c-12.371-0.665-6.611-17.824-6.222-24.801   c0.51-9.162-5.67-17.593-12.778-24.199"/>
	<path fill="none" stroke="#000000" stroke-width="3" stroke-miterlimit="10" d="M105,179c4.649-3.502,4.916-9.191,7-14"/>
	<path fill="none" stroke="#000000" stroke-width="3" stroke-miterlimit="10" d="M129,143c-2.01-8.833,3.68-10.951,5-19"/>
	<path fill="none" stroke="#000000" stroke-width="3" stroke-miterlimit="10" d="M87,228.333c0.892,4.1,4.792,14.939,3.743,18.635   c-1.34,4.722,1.142,7.219,4.246,10.417c5.049,5.203,8.163,11.054,10.933,17.699c1.779,4.266,3.83,4.644,8.003,4.685   c5.345,0.052,7.651,1.318,9.193,6.771C126.471,298.404,137.545,296.5,145,304"/>
	<path fill="none" stroke="#000000" stroke-width="3" stroke-miterlimit="10" d="M154,328c7.654,0.393,10.975,8.518,17.95,12.242   c6.428,3.432,16.108-1.191,21.05,4.758"/>
	<path fill="none" stroke="#000000" stroke-width="3" stroke-miterlimit="10" d="M280,348c8.405-4.987,18.409-5.224,27.808-6.759   c4.103-0.67,8.025-1.608,11.729-3.52c3.636-1.878,6.781-4.17,11.071-4.1c11.804,0.191,20.188-0.505,26.392-11.621"/>
	<path fill="none" stroke="#000000" stroke-width="3" stroke-miterlimit="10" d="M384,304c-0.173-11.519,16.063-10.315,15-19"/>
	<path fill="none" stroke="#000000" stroke-width="3" stroke-miterlimit="10" d="M248,319c8.672,0.185,13.854,9.505,23,8"/>
	<line fill="none" stroke="#000000" stroke-width="12" stroke-miterlimit="10" x1="116" y1="446" x2="730" y2="446"/>
	<path fill="none" stroke="#000000" stroke-width="3" stroke-miterlimit="10" d="M145,112.333c1.52-4.034,5.965-5.585,6.667-10"/>
	<path fill="none" stroke="#000000" stroke-width="8" stroke-miterlimit="10" d="M536.833,443.833l4.667-5.333   c8-9.5,6.836-28.667,6.525-53.333c-0.494-39.183-1.525-79.44-1.525-118.626c0-21.915,0.497-48.548,0-65.746   c-0.5-17.294-0.063,0.125-149.26-149.072L355.127,86.49"/>
</g>
</svg>